<?xml version="1.0" encoding="utf-8"?>
<!-- Generator: Adobe Illustrator 19.0.0, SVG Export Plug-In . SVG Version: 6.00 Build 0)  -->
<svg version="1.1" id="Layer_1" xmlns="http://www.w3.org/2000/svg" xmlns:xlink="http://www.w3.org/1999/xlink" x="0px" y="0px"
	 width="1400px" height="980px" viewBox="0 0 1400 980" enable-background="new 0 0 1400 980" xml:space="preserve">
<g id="XMLID_14_">
	<g id="XMLID_571_">
		<polygon id="XMLID_572_" fill="#00AEEF" points="0,980 1400,0 0,0 		"/>
		<polygon id="XMLID_573_" fill="#009ECE" points="1400,980 1400,0 0,980 		"/>
	</g>
	<g id="XMLID_457_">
		<rect id="XMLID_518_" x="1060.2" y="810" fill="#B62025" width="23" height="170"/>
		<rect id="XMLID_519_" x="1083.2" y="810" fill="#ED1C24" width="23" height="170"/>
	</g>
	<g id="XMLID_485_">
		<polygon id="XMLID_512_" fill="#F7941E" points="885,825 1281.3,825 885,665 		"/>
		<polygon id="XMLID_517_" fill="#FBB040" points="885,665 1281.3,825 1281.3,665 		"/>
	</g>
	<g id="XMLID_514_">
		<polygon id="XMLID_515_" fill="#E6E7E8" points="900,680 900,810 1244.2,810 922.2,680 		"/>
		<polygon id="XMLID_516_" fill="#FFFFFF" points="1266.3,680 922.2,680 1244.2,810 1266.3,810 		"/>
	</g>
	<g id="XMLID_389_">
		<polygon id="XMLID_390_" fill="#B62025" points="0,0 0,980 435.7,980 190.3,0 		"/>
		<polygon id="XMLID_391_" fill="#ED1C24" points="655.9,588.9 833,398.2 623.2,483.7 473,0 190.3,0 435.7,980 777.3,980 		"/>
	</g>
	<g id="XMLID_47_">
		<path id="XMLID_44_" fill="#FFFFFF" d="M174,246.3h-0.5l-9.3,89.3H128L109.3,168H135l13.9,132.1h0.5L161.8,168h25.4l12.9,133.1
			h0.5L214,168h23l-18.7,167.6h-35L174,246.3z"/>
		<path id="XMLID_50_" fill="#FFFFFF" d="M276.4,238.7h36.1v23.9h-36.1v49.1h45.5v23.9h-71.8V168h71.8V192h-45.5V238.7z"/>
		<path id="XMLID_52_" fill="#FFFFFF" d="M200.6,570.3H174l-4.5-30.4h-32.3l-4.5,30.4h-24.2l26.8-167.6h38.5L200.6,570.3z
			 M140.5,517.2h25.4l-12.4-84.7h-0.5L140.5,517.2z"/>
		<path id="XMLID_55_" fill="#FFFFFF" d="M267.8,570.3c-1.4-4.3-2.4-6.9-2.4-20.6v-26.3c0-15.6-5.3-21.3-17.2-21.3h-9.1v68.2h-26.3
			V402.7h39.7c27.3,0,39,12.7,39,38.5v13.2c0,17.2-5.5,28.2-17.2,33.8v0.5c13.2,5.5,17.5,18,17.5,35.4V550c0,8.1,0.2,14.1,2.9,20.3
			H267.8z M239.1,426.7v51.5h10.3c9.8,0,15.8-4.3,15.8-17.7v-16.5c0-12-4.1-17.2-13.4-17.2H239.1z"/>
		<path id="XMLID_58_" fill="#FFFFFF" d="M335.3,473.4h36.1v23.9h-36.1v49.1h45.5v23.9H309V402.7h71.8v23.9h-45.5V473.4z"/>
		<path id="XMLID_60_" fill="#FFFFFF" d="M141.7,805h-26.3V637.4h26.3v71.8h29.9v-71.8h26.8V805h-26.8v-71.8h-29.9V805z"/>
		<path id="XMLID_62_" fill="#FFFFFF" d="M217.5,637.4h26.3V805h-26.3V637.4z"/>
		<path id="XMLID_64_" fill="#FFFFFF" d="M318.1,805c-1.4-4.3-2.4-6.9-2.4-20.6v-26.3c0-15.6-5.3-21.3-17.2-21.3h-9.1V805H263V637.4
			h39.7c27.3,0,39,12.7,39,38.5v13.2c0,17.2-5.5,28.2-17.2,33.8v0.5c13.2,5.5,17.5,18,17.5,35.4v25.9c0,8.1,0.2,14.1,2.9,20.3H318.1
			z M289.4,661.4v51.5h10.3c9.8,0,15.8-4.3,15.8-17.7v-16.5c0-12-4.1-17.2-13.4-17.2H289.4z"/>
		<path id="XMLID_67_" fill="#FFFFFF" d="M359.3,637.4h26.3V805h-26.3V637.4z"/>
		<path id="XMLID_69_" fill="#FFFFFF" d="M428.7,683.6h-0.5V805h-23.7V637.4h33l26.6,100.3h0.5V637.4h23.5V805H461L428.7,683.6z"/>
		<path id="XMLID_71_" fill="#FFFFFF" d="M546.5,711.6h36.9v53.1c0,26.8-13.4,42.1-39.3,42.1c-25.9,0-39.3-15.3-39.3-42.1v-87.1
			c0-26.8,13.4-42.1,39.3-42.1c25.9,0,39.3,15.3,39.3,42.1v16.3h-24.9v-18c0-12-5.3-16.5-13.6-16.5s-13.6,4.5-13.6,16.5v90.5
			c0,12,5.3,16.3,13.6,16.3s13.6-4.3,13.6-16.3v-30.9h-12V711.6z"/>
	</g>
	<g id="XMLID_456_">
		<path id="XMLID_46_" fill="#FED19A" d="M1305.7,334.3c0,0,12.2,17.8,1.1,30.2c-11.1,12.4-18.7-16.8-18.7-16.8L1305.7,334.3z"/>
		<g id="XMLID_32_">
			<path id="XMLID_37_" fill="#F15A29" d="M1308.3,293.9l-37.1-65.9l-20.5,11.6l37.1,65.9c3.6,6.4,1.3,14.6-5.1,18.2l-52.1,29.3
				c-6.4,3.6-14.6,1.3-18.2-5.1l-31.3-55.6l-20.5,11.6l31.3,55.6c10,17.7,32.5,24,50.3,14.1l52.1-29.3
				C1311.9,334.2,1318.2,311.6,1308.3,293.9z"/>
		</g>
		<path id="XMLID_49_" fill="#FED19A" d="M1226.6,338.6c4-2.2,9.2-0.5,11.5,3.9c-2.4-4.3-1.1-9.6,2.9-11.8c4-2.2,9.2-0.5,11.5,3.9
			c-2.4-4.3-1.1-9.6,2.9-11.8c4-2.2,9.2-0.5,11.5,3.9c-2.4-4.3-1.1-9.6,2.9-11.8c4-2.2,9.2-0.5,11.5,3.9l111.2,202.5l-14.5,7.9
			l-14.5,7.9l-14.5,7.9l-14.5,7.9l-111.2-202.5C1221.3,346.1,1222.6,340.8,1226.6,338.6z"/>
		<g id="XMLID_15_">
			<path id="XMLID_302_" fill="#FBB040" d="M1294.2,50.2c-2.4-4.3-7.9-5.9-12.3-3.4l-10.7,6c-4.3,2.4-5.9,7.9-3.4,12.3l37.2,66.1
				l26.6-14.5L1294.2,50.2z"/>
			<path id="XMLID_306_" fill="#F7941E" d="M1331.6,116.7l-26.6,14.5l32.4,57.6c2.4,4.3,7.9,5.9,12.3,3.4l10.7-6
				c4.3-2.4,5.9-7.9,3.4-12.3L1331.6,116.7z"/>
		</g>
		<g id="XMLID_303_">
			<polygon id="XMLID_304_" fill="#FFEC5F" points="887.5,357.7 973.7,510.9 1336.3,186.8 1304.9,131.1 			"/>
			<polygon id="XMLID_305_" fill="#FFF197" points="1268.1,65.6 803.7,208.6 887.5,357.7 1304.9,131.1 			"/>
		</g>
		<g id="XMLID_29_">
			<polygon id="XMLID_299_" fill="#FBB040" points="921.2,172.4 893.6,180.9 968.4,313.8 993.2,300.4 			"/>
			<polygon id="XMLID_308_" fill="#F7941E" points="968.4,313.8 1044,448.1 1065.5,428.9 993.2,300.4 			"/>
		</g>
		<g id="XMLID_30_">
			<path id="XMLID_301_" fill="#ED1C24" d="M834.7,188.3c-3-5.3-9.7-7.2-15-4.2l-13.1,7.4c-5.3,3-7.2,9.7-4.2,15l85.1,151.3
				l32.6-17.7L834.7,188.3z"/>
			<path id="XMLID_307_" fill="#B62025" d="M920.1,340l-32.6,17.7l87.4,155.4c3,5.3,9.7,7.2,15,4.2l13.1-7.4c5.3-3,7.2-9.7,4.2-15
				L920.1,340z"/>
		</g>
		<g id="XMLID_48_">
			<polygon id="XMLID_79_" fill="#D1D3D4" points="1248.1,412.9 1255.6,427.1 1290,408.9 1282.4,394.7 			"/>
			<polygon id="XMLID_334_" fill="#FFFFFF" points="1321.2,374.1 1282.4,394.7 1290,408.9 1329.1,388.2 			"/>
		</g>
		<g id="XMLID_335_">
			<polygon id="XMLID_640_" fill="#1A1A1A" points="1400,434 1365.7,453.6 1329.1,388.2 1290,408.9 1341.1,504.1 1400,471 			"/>
			<path id="XMLID_633_" fill="#2C2B2D" d="M1400,471l-58.9,33.1l-51.1-95.2l-34.4,18.2l36.5,68.5l-0.1,0.1l23.2,42.2
				c7,12.8,23.1,17.4,35.8,10.3l49-27.3V471z"/>
		</g>
	</g>
	<g id="XMLID_403_">
		<path id="XMLID_17_" fill="#1A1A1A" d="M968.4,776.3h-9.2l-1.6-10.5h-11.2l-1.6,10.5h-8.4l9.3-58h13.3L968.4,776.3z M947.6,758
			h8.8l-4.3-29.3h-0.2L947.6,758z"/>
		<path id="XMLID_20_" fill="#1A1A1A" d="M999.6,732.7v7.5c0,9.3-4.5,14.3-13.6,14.3h-4.3v21.8h-9.1v-58H986
			C995.1,718.4,999.6,723.4,999.6,732.7z M981.7,726.7v19.6h4.3c2.9,0,4.5-1.3,4.5-5.5v-8.7c0-4.1-1.6-5.5-4.5-5.5H981.7z"/>
		<path id="XMLID_23_" fill="#1A1A1A" d="M1030.8,732.7v7.5c0,9.3-4.5,14.3-13.6,14.3h-4.3v21.8h-9.1v-58h13.4
			C1026.3,718.4,1030.8,723.4,1030.8,732.7z M1012.9,726.7v19.6h4.3c2.9,0,4.5-1.3,4.5-5.5v-8.7c0-4.1-1.6-5.5-4.5-5.5H1012.9z"/>
		<path id="XMLID_26_" fill="#1A1A1A" d="M1035,718.4h9.1v49.7h15v8.3H1035V718.4z"/>
		<path id="XMLID_28_" fill="#1A1A1A" d="M1066.5,757.1l-11.5-38.7h9.5l6.9,26.4h0.2l6.9-26.4h8.7l-11.5,38.7v19.2h-9.1V757.1z"/>
		<path id="XMLID_33_" fill="#1A1A1A" d="M1111.9,734.4h-0.2v42h-8.2v-58h11.4l9.2,34.7h0.2v-34.7h8.1v58h-9.4L1111.9,734.4z"/>
		<path id="XMLID_35_" fill="#1A1A1A" d="M1138.2,732.3c0-9.3,4.9-14.6,13.8-14.6c8.9,0,13.8,5.3,13.8,14.6v30.1
			c0,9.3-4.9,14.6-13.8,14.6c-8.9,0-13.8-5.3-13.8-14.6V732.3z M1147.3,763c0,4.1,1.8,5.7,4.7,5.7s4.7-1.6,4.7-5.7v-31.3
			c0-4.1-1.8-5.7-4.7-5.7s-4.7,1.6-4.7,5.7V763z"/>
		<path id="XMLID_39_" fill="#1A1A1A" d="M1192,745.5h-0.2l-3.2,30.9h-12.5l-6.5-58h8.9l4.8,45.7h0.2l4.3-45.7h8.8l4.5,46h0.2
			l4.6-46h7.9l-6.5,58h-12.1L1192,745.5z"/>
		<path id="XMLID_41_" fill="#1A1A1A" d="M1219.5,763.5l-1.2-20.9v-24.2h9.1v24.2l-1.2,20.9H1219.5z M1227.3,767.6v8.8h-8.8v-8.8
			H1227.3z"/>
	</g>
</g>
</svg>
