<?xml version="1.0"?>
<svg xmlns="http://www.w3.org/2000/svg" id="Layer_1_copy" fill="#fff" data-name="Layer 1 copy" viewBox="0 0 64 64" width="512" height="512"><path d="M35,54H32a1,1,0,0,0,0,2h3a1,1,0,0,0,0-2Z"/><path d="M35,60H32a1,1,0,0,0,0,2h3a1,1,0,0,0,0-2Z"/><path d="M1,52H1a1,1,0,0,0,0,.22l2,9A1,1,0,0,0,4,62H17a1,1,0,0,0,1-.78l2-9A1,1,0,0,0,20,52h0a9.17,9.17,0,0,0-8-8.88V26h1.38l1.72,3.44a1,1,0,1,0,1.79-.89L15.62,26h3.79l4.71,8.49a1,1,0,0,0,1.75,0L30.59,26H38L27.5,40H22.62L18.4,31.55a1,1,0,0,0-1.79.89l4.5,9A1,1,0,0,0,22,42h1.92L23,53.82l-2,6.9A1,1,0,0,0,21,61v2a1,1,0,0,0,2,0V61.14l2-6.87a1,1,0,0,0,0-.2L25.93,42H28a1,1,0,0,0,.8-.4L39,28V41a1,1,0,0,0,2,0V26H52V43.12A9.17,9.17,0,0,0,44,52h0a1,1,0,0,0,0,.22l2,9A1,1,0,0,0,47,62H60a1,1,0,0,0,1-.78l2-9A1,1,0,0,0,63,52h0a9.23,9.23,0,0,0-9-9V25.8L62.22,24a1,1,0,0,0-.43-2l-8.89,2H42V20a1,1,0,0,0-2,0v4H36V15a7,7,0,0,0-2.11-5H35a5,5,0,0,1,5,5v1a1,1,0,0,0,2,0V15a7,7,0,0,0-2.11-5H46a1,1,0,0,0,.45-1.89l-16-8a1,1,0,0,0-.94,0l-14,8A1,1,0,0,0,16,10h8v3a7,7,0,0,0,5,6.71V24H11.11L2.22,22a1,1,0,0,0-.43,2L10,25.8V43A9.23,9.23,0,0,0,1,52Zm58.2,8H47.8l-1.56-7H60.75Zm1.72-9H46.09a7.58,7.58,0,0,1,14.83,0ZM25,31.94,21.7,26h6.6ZM30,2.13,41.76,8h-22ZM26,13V10h3a5,5,0,0,1,5,5v3H31A5,5,0,0,1,26,13Zm8,7v4H31V20ZM17.91,51H14a1,1,0,0,0,0,2h3.75L16.2,60H4.8L3.25,53H10a1,1,0,0,0,0-2H3.09a7.36,7.36,0,0,1,7.41-6A7.36,7.36,0,0,1,17.91,51Z"/><path d="M40,44a1,1,0,0,0-1,1V63a1,1,0,0,0,2,0V45A1,1,0,0,0,40,44Z"/><path d="M56,57h2a1,1,0,0,0,0-2H56a1,1,0,0,0,0,2Z"/><path d="M50,57h2a1,1,0,0,0,0-2H50a1,1,0,0,0,0,2Z"/></svg>
